<svg width="900" height="1200" viewBox="0 0 900 1200" fill="none" xmlns="http://www.w3.org/2000/svg">
  <defs>
    <linearGradient id="bg" x1="0" y1="0" x2="900" y2="1200" gradientUnits="userSpaceOnUse">
      <stop stop-color="#ff7a18"/>
      <stop offset="0.45" stop-color="#1f6feb"/>
      <stop offset="1" stop-color="#0d1117"/>
    </linearGradient>
    <radialGradient id="sun" cx="0" cy="0" r="1" gradientUnits="userSpaceOnUse" gradientTransform="translate(700 190) rotate(90) scale(260)">
      <stop stop-color="#fff4b8"/>
      <stop offset="1" stop-color="#fff4b8" stop-opacity="0"/>
    </radialGradient>
    <filter id="shadow" x="-20%" y="-20%" width="140%" height="140%">
      <feDropShadow dx="0" dy="28" stdDeviation="20" flood-color="#000" flood-opacity="0.45"/>
    </filter>
  </defs>
  <rect width="900" height="1200" rx="46" fill="url(#bg)"/>
  <rect width="900" height="1200" rx="46" fill="url(#sun)"/>
  <path d="M0 760 C170 650 260 690 405 585 C555 475 692 490 900 388 V1200 H0 V760Z" fill="#0d1117" fill-opacity="0.78"/>
  <path d="M0 820 C205 718 298 765 462 648 C615 538 728 550 900 462" stroke="#7ee787" stroke-width="8" stroke-opacity="0.8"/>
  <g filter="url(#shadow)">
    <path d="M190 810 L265 700 H612 L710 810 L655 870 H255 L190 810Z" fill="#101820"/>
    <path d="M290 708 H590 L646 785 H232 L290 708Z" fill="#1f6feb"/>
    <path d="M250 814 H660 L634 846 H282 L250 814Z" fill="#0a0f14"/>
    <circle cx="310" cy="842" r="66" fill="#080b0f"/>
    <circle cx="310" cy="842" r="34" fill="#30363d"/>
    <circle cx="605" cy="842" r="66" fill="#080b0f"/>
    <circle cx="605" cy="842" r="34" fill="#30363d"/>
    <path d="M385 728 H535 L575 785 H342 L385 728Z" fill="#58a6ff" fill-opacity="0.9"/>
    <path d="M228 785 H646" stroke="#ffdf5d" stroke-width="10" stroke-linecap="round"/>
  </g>
  <text x="72" y="130" fill="#ffffff" font-family="Inter, Arial, sans-serif" font-size="44" font-weight="800" letter-spacing="8">REVIVA FIX</text>
  <text x="72" y="235" fill="#ffffff" font-family="Inter, Arial, sans-serif" font-size="84" font-weight="900">FORZA</text>
  <text x="72" y="325" fill="#ffffff" font-family="Inter, Arial, sans-serif" font-size="72" font-weight="900">HORIZON 6</text>
  <text x="72" y="390" fill="#7ee787" font-family="Inter, Arial, sans-serif" font-size="34" font-weight="800">RX 580 • FH201/FH205</text>
  <rect x="72" y="1020" width="292" height="64" rx="32" fill="#2ea043"/>
  <text x="112" y="1063" fill="#fff" font-family="Inter, Arial, sans-serif" font-size="28" font-weight="900">FIX DISPONÍVEL</text>
</svg>
